<svg xmlns="http://www.w3.org/2000/svg" viewBox="0 0 311.29 435.43"><defs><style>.cls-1{fill:#e54f00;}.cls-2{fill:#4a4c4c;}</style></defs><title>Asset 1</title><g id="Layer_2" data-name="Layer 2"><g id="Layer_3" data-name="Layer 3"><path class="cls-1" d="M105.71,317.46c-106.48,0-145.92-98.59-55.22-157.74C28.8,240.56,42.25,278.67,105.71,317.46Z"/><path class="cls-1" d="M261.48,110.42c59.15,51.27,54.95,133.9,35.49,161.69-27.6,39.44-74.93,31.55-122.25,47.33C170.78,248.45,293,252.39,261.48,110.42Z"/><path class="cls-1" d="M178.66,0C174.72,71,68.24,114.37,64.3,197.18,61.48,256.27,85.16,281,139.23,319.44,182.61,220.85,328.52,220.85,178.66,0Z"/></g><g id="Layer_4" data-name="Layer 4"><ellipse class="cls-2" cx="283.52" cy="402" rx="22.03" ry="19.03" transform="translate(-189.88 535.72) rotate(-70.58)"/><ellipse class="cls-2" cx="29.23" cy="412.68" rx="20.87" ry="23.06" transform="translate(-158.97 44.25) rotate(-23.01)"/><path class="cls-2" d="M262.39,413.5a27.31,27.31,0,0,1-.12-19A27,27,0,0,1,276,378.94c-86.57-18.06-172.91-31.33-259-44.67C6.52,346.7,1.26,358.65,5.14,369.76c85.28,13.95,172.58,29.3,261.42,50.6A22.72,22.72,0,0,1,262.39,413.5Z"/><path class="cls-2" d="M49.75,428.66c29.47-11.51,58.72-22.17,87.68-31.73C108,391.33,79,386.19,50.59,381.38q-9.2,2.72-18.34,5.52a27.18,27.18,0,0,1,19.41,16.26,27.66,27.66,0,0,1,.83,19.91A25,25,0,0,1,49.75,428.66Z"/><path class="cls-2" d="M289,325.87c-44.21,8.48-87.48,17.32-129.75,27.12q40.62,6.92,81.35,14.76c23-5.28,45.73-9.62,68.17-12.82C315.38,341.65,309,333.58,289,325.87Z"/></g></g></svg>