<svg xmlns="http://www.w3.org/2000/svg" xmlns:xlink="http://www.w3.org/1999/xlink" viewBox="0 0 77.94 90"><defs><style>.cls-1{fill:url(#linear-gradient);}.cls-2{fill:#fff;}</style><linearGradient id="linear-gradient" x1="10.01" y1="24.23" x2="67.93" y2="82.16" gradientTransform="matrix(1, 0, 0, -1, 0, 98.2)" gradientUnits="userSpaceOnUse"><stop offset="0" stop-color="#7100d3"/><stop offset="1" stop-color="#8454c8"/></linearGradient></defs><g id="Layer_2" data-name="Layer 2"><g id="Layer_4" data-name="Layer 4"><polygon class="cls-1" points="75.69 66.2 75.69 23.8 38.97 2.6 2.25 23.8 2.25 66.2 38.97 87.41 75.69 66.2"/><path class="cls-2" d="M39,0,0,22.5v45L39,90l39-22.5v-45ZM72.12,25.85V50.14l-14-32.37ZM39,6.7,46.49,11,39,28.41,31.44,11Zm5.37,50.73H33.59L39,45.05ZM5.8,25.85l14-8.11L5.8,50.13ZM5.69,66.94,27.12,17.56l4.75,11L15.2,66.94ZM39,83.29,20,72.36,23.64,64H54.29l3.61,8.34ZM67.29,66.94H62.73L46.12,28.53l4.75-11L71.25,64.65l1,2.28Z"/></g></g></svg>