<svg xmlns="http://www.w3.org/2000/svg" viewBox="0 0 79.69 90.45">
    <defs>
        <style>.cls-1{fill:url(#linear-gradient);}.cls-2{fill:#fff;}</style>
        <linearGradient id="linear-gradient" x1="10.89" y1="74.19" x2="68.81" y2="16.26" gradientUnits="userSpaceOnUse">
            <stop offset="0" stop-color="#7100d3"/>
            <stop offset="1" stop-color="#8454c8"/>
        </linearGradient>
    </defs>
    <polygon class="cls-1"
             points="76.57 66.43 76.57 24.02 39.85 2.82 3.13 24.02 3.13 66.43 39.85 87.63 76.57 66.43"/>
    <path class="cls-2"
          d="M77.15,20.75,42.39.68a5.09,5.09,0,0,0-5.09,0L2.54,20.75A5.1,5.1,0,0,0,0,25.16V65.29A5.1,5.1,0,0,0,2.54,69.7L37.3,89.77a5.09,5.09,0,0,0,5.09,0L77.15,69.7a5.08,5.08,0,0,0,2.54-4.41V25.16A5.08,5.08,0,0,0,77.15,20.75ZM73,26.08V50.37L59,18ZM39.85,6.93l7.52,4.34L39.84,28.64,32.32,11.27Zm5.37,50.73H34.47l5.36-12.38h0l0,0v0h0ZM6.68,26.08l14-8.11-14,32.39Zm9.4,41.09H6.57L28,17.79h0l4.75,11L16.08,67.17ZM39.85,83.52,20.91,72.59l3.61-8.34H55.17l3.61,8.34ZM68.17,67.17H63.61L47,28.76l4.75-11h0L72.13,64.88h0l1,2.28Z"/>
</svg>
