<svg aria-hidden="true" focusable="false" data-prefix="fas" data-icon="hamburger"
     class="svg-inline--fa fa-hamburger fa-w-16" role="img" xmlns="http://www.w3.org/2000/svg" viewBox="0 0 512 512">
    <path d="M58.64,224H453.36c34.57,0,54.62-43.9,34.82-75.88C448,83.2,359.55,32.1,256,32,152.46,32.1,64,83.2,23.82,148.11,4,180.09,24.07,224,58.64,224ZM384,112a16,16,0,1,1-16,16A16,16,0,0,1,384,112ZM256,80a16,16,0,1,1-16,16A16,16,0,0,1,256,80ZM128,112a16,16,0,1,1-16,16A16,16,0,0,1,128,112Z"/>
</svg>
